<?xml version="1.0" standalone="no"?>
<!DOCTYPE svg PUBLIC "-//W3C//DTD SVG 20010904//EN"
 "http://www.w3.org/TR/2001/REC-SVG-20010904/DTD/svg10.dtd">
<svg version="1.0" xmlns="http://www.w3.org/2000/svg"
 width="103.000000pt" height="103.000000pt" viewBox="0 0 103.000000 103.000000"
 preserveAspectRatio="xMidYMid meet">
<metadata>
Created by potrace 1.11, written by Peter Selinger 2001-2013
</metadata>
<g transform="translate(0.000000,103.000000) scale(0.100000,-0.100000)"
fill="#000000" stroke="none">
<path d="M385 1023 c-62 -7 -209 -35 -232 -44 l-25 -9 4 -258 c4 -230 7 -264
26 -322 51 -153 161 -284 306 -364 l48 -27 45 22 c59 29 158 108 207 167 51
61 103 171 120 253 9 44 14 146 15 301 l2 236 -38 7 c-21 5 -42 9 -48 11 -102
23 -336 38 -430 27z"/>
</g>
</svg>
