<?xml version="1.0" encoding="UTF-8"?>
<svg width="12px" height="12px" viewBox="0 0 12 12" version="1.1" xmlns="http://www.w3.org/2000/svg" xmlns:xlink="http://www.w3.org/1999/xlink">
    <!-- Generator: Sketch 50.2 (55047) - http://www.bohemiancoding.com/sketch -->
    <title>Plus</title>
    <desc>Created with Sketch.</desc>
    <defs></defs>
    <g id="Page-1" stroke="none" stroke-width="1" fill="none" fill-rule="evenodd">
        <g id="4-copy" transform="translate(-774.000000, -298.000000)" fill="#031E41" fill-rule="nonzero">
            <g id="Plus" transform="translate(774.000000, 298.000000)">
                <g id="Shape">
                    <path d="M12,6 C12,6.553 11.952,7 11.399,7 L7,7 L7,11.399 C7,11.951 6.553,12 6,12 C5.447,12 5,11.951 5,11.399 L5,7 L0.601,7 C0.049,7 0,6.553 0,6 C0,5.447 0.049,5 0.601,5 L5,5 L5,0.601 C5,0.048 5.447,0 6,0 C6.553,0 7,0.048 7,0.601 L7,5 L11.399,5 C11.952,5 12,5.447 12,6 Z"></path>
                </g>
            </g>
        </g>
    </g>
</svg>