<?xml version="1.0" encoding="UTF-8"?>
<svg width="46px" height="44px" viewBox="0 0 46 44" version="1.1" xmlns="http://www.w3.org/2000/svg" xmlns:xlink="http://www.w3.org/1999/xlink">
    <!-- Generator: Sketch 50.2 (55047) - http://www.bohemiancoding.com/sketch -->
    <title>Group 2</title>
    <desc>Created with Sketch.</desc>
    <defs>
        <polygon id="path-1" points="0 -0.0002 22.6535 -0.0002 22.6535 22.7144 0 22.7144"></polygon>
    </defs>
    <g id="Page-1" stroke="none" stroke-width="1" fill="none" fill-rule="evenodd">
        <g id="28-copy-2" transform="translate(-373.000000, -349.000000)">
            <g id="Group-2" transform="translate(373.000000, 349.000000)">
                <polygon id="Page-1-Copy-6" fill="#031E41" points="0 0 0.153047058 44 46 44 46 0"></polygon>
                <g id="Page-1" transform="translate(11.000000, 11.000000)">
                    <mask id="mask-2" fill="white">
                        <use xlink:href="#path-1"></use>
                    </mask>
                    <g id="Clip-2"></g>
                    <path d="M3.7655,12.3134 C1.4105,9.9574 1.4105,6.1234 3.7655,3.7664 C4.9075,2.6254 6.4245,1.9964 8.0385,1.9964 C9.6545,1.9964 11.1715,2.6254 12.3135,3.7664 C14.6685,6.1234 14.6685,9.9574 12.3135,12.3134 C11.1715,13.4554 9.6545,14.0844 8.0385,14.0844 C6.4245,14.0844 4.9075,13.4554 3.7655,12.3134 Z M22.6535,21.3004 L14.3595,13.0074 C16.8415,9.8534 16.6345,5.2594 13.7275,2.3524 C10.5895,-0.7856 5.4875,-0.7836 2.3515,2.3524 C-0.7845,5.4884 -0.7845,10.5904 2.3515,13.7274 C3.9195,15.2954 5.9795,16.0804 8.0385,16.0804 C9.7705,16.0804 11.4965,15.5194 12.9365,14.4124 L21.2395,22.7144 L22.6535,21.3004 Z" id="Fill-1" fill="#FEFEFE" mask="url(#mask-2)"></path>
                </g>
            </g>
        </g>
    </g>
</svg>