<?xml version="1.0" encoding="UTF-8"?>
<svg width="49px" height="12px" viewBox="0 0 49 12" version="1.1" xmlns="http://www.w3.org/2000/svg" xmlns:xlink="http://www.w3.org/1999/xlink">
    <!-- Generator: Sketch 50.2 (55047) - http://www.bohemiancoding.com/sketch -->
    <title>Strava</title>
    <desc>Created with Sketch.</desc>
    <defs></defs>
    <g id="Page-1" stroke="none" stroke-width="1" fill="none" fill-rule="evenodd">
        <g id="2-search-for-events-copy" transform="translate(-489.000000, -1743.000000)" fill="#000000" fill-rule="nonzero">
            <g id="Group-2" transform="translate(369.000000, 1732.000000)">
                <g id="Strava" transform="translate(120.250000, 11.609756)">
                    <path d="M29.2101717,0.271410134 L24.6562215,9.43149392 L23.161841,7.18772515 C23.6479902,6.95753986 24.0675581,6.60042998 24.3772141,6.15189135 C24.685303,5.67672845 24.8411148,5.11605664 24.8232032,4.54704811 C24.8279779,4.15549588 24.7616952,3.76641035 24.6276866,3.39934856 C24.502133,3.06808724 24.3123605,2.76593103 24.0696718,2.51087637 C23.7383342,2.18418044 23.3392894,1.93718972 22.9018568,1.78805153 C22.3012346,1.59635454 21.6730031,1.50979204 21.0439212,1.53205107 L16.9095389,1.53205107 L16.9095389,10.1328061 L19.7228635,10.1328061 L19.7228635,7.65562516 L20.3252658,7.65562516 L21.9147625,10.1328061 L27.2243577,10.1328061 L29.2101717,6.13898376 L31.1959856,10.1328061 L34.1160516,10.1328061 L29.2101717,0.271410134 Z M43.7079876,0.271410134 L38.7936529,10.1328061 L41.7168894,10.1328061 L43.7079876,6.13898376 L45.6948584,10.1328061 L48.6149244,10.1328061 L43.7079876,0.271410134 Z M31.7053855,1.52774854 L36.3787593,11.3891445 L41.0500195,1.52774854 L38.2684003,1.52774854 L36.3766456,5.51834399 L34.4891183,1.52774854 L31.7053855,1.52774854 Z M4.04560719,1.5298998 C3.52699621,1.52145247 3.01017964,1.59400464 2.51318022,1.74502624 C2.10765069,1.86883623 1.72942317,2.07117276 1.39926435,2.34092648 C1.10546111,2.58509499 0.870841255,2.89165016 0.71442802,3.23800373 C0.556781922,3.58403148 0.476300146,3.96126923 0.478751321,4.342678 C0.468182859,4.73098122 0.569640093,5.11498191 0.770440868,5.44842789 C0.967014258,5.75498307 1.2312258,6.01205916 1.54405227,6.2002948 C1.89281151,6.41004308 2.26799191,6.5746148 2.659025,6.68755618 C3.08916139,6.81663205 3.54149156,6.92742216 4.01178811,7.02315343 C4.32778512,7.07155688 4.63744105,7.15760745 4.93335798,7.27377573 C5.06629899,7.31366055 5.16235002,7.43139564 5.17643261,7.57172585 C5.17441492,7.68390228 5.10954597,7.78502464 5.00945091,7.83202884 C4.83401444,7.90732309 4.64483898,7.93959206 4.45460666,7.92453321 C3.94422684,7.92293774 3.43670842,7.84686947 2.94754401,7.69865045 C2.42569846,7.53902781 1.93683401,7.28387176 1.50494897,6.94570791 L0,8.72050103 C0.561044313,9.20301311 1.2136046,9.56291894 1.91711898,9.77784748 C2.70157657,10.0197807 3.51765321,10.1387462 4.33729674,10.1306548 C4.85726506,10.1424868 5.37617653,10.0822514 5.88029216,9.94779737 C6.29880325,9.83593162 6.69406373,9.64877162 7.04493666,9.39492242 C7.35987682,9.15935897 7.6156336,8.85387943 7.79212691,8.50429896 C7.97718679,8.1238983 8.06514364,7.70219095 8.04788369,7.27807826 C8.05471017,6.9123751 7.96648056,6.55132801 7.79212691,6.23148813 C7.60822968,5.92486155 7.35676579,5.66598174 7.05761881,5.4753187 C6.71087458,5.24998544 6.33487073,5.07511498 5.9405324,4.95578835 C5.45755369,4.81165363 4.96823391,4.69763662 4.4715162,4.61158605 C4.16578303,4.56454186 3.866452,4.48152063 3.57953802,4.36419064 C3.45456612,4.3215969 3.36514155,4.20919233 3.3502024,4.07592121 C3.3510703,3.97115442 3.40940059,3.87566881 3.50133141,3.82852581 C3.64424488,3.75580481 3.80384271,3.72383825 3.96317319,3.73602144 C4.38979716,3.7404587 4.81362391,3.80673827 5.22187699,3.93286213 C5.6773777,4.06839179 6.10962779,4.28136696 6.4943198,4.55888007 L7.86399245,2.6722212 C7.36262941,2.28546603 6.79599807,1.99529156 6.19206179,1.81601797 C5.49468119,1.6136074 4.77174008,1.51719331 4.04666404,1.5298998 L4.04560719,1.5298998 Z M8.05105422,1.53205107 L8.05105422,3.96297983 L10.4860278,3.96297983 L10.4860278,10.1328061 L13.3014661,10.1328061 L13.3014661,3.96297983 L15.8241579,3.96297983 L15.8241579,1.53205107 L8.04999738,1.53205107 L8.05105422,1.53205107 Z M19.7482278,3.97696305 L20.9741694,3.97696305 C21.2478925,3.96297983 21.5184451,4.03504719 21.7520081,4.18348443 C21.9475247,4.32546788 22.0584935,4.5631826 22.0426408,4.80950237 C22.0521552,5.05761322 21.9440434,5.29528565 21.7520081,5.44842789 C21.5184451,5.60977272 21.230983,5.68936951 20.9403503,5.70657962 L19.7482278,5.6958233 L19.7482278,3.97696305 Z" id="Shape"></path>
                </g>
            </g>
        </g>
    </g>
</svg>