<?xml version="1.0" encoding="UTF-8"?>
<svg width="11px" height="12px" viewBox="0 0 11 12" version="1.1" xmlns="http://www.w3.org/2000/svg" xmlns:xlink="http://www.w3.org/1999/xlink">
    <!-- Generator: Sketch 50.2 (55047) - http://www.bohemiancoding.com/sketch -->
    <title>Plus Copy</title>
    <desc>Created with Sketch.</desc>
    <defs></defs>
    <g id="Page-1" stroke="none" stroke-width="1" fill="none" fill-rule="evenodd">
        <g id="4-copy" transform="translate(-745.000000, -629.000000)" fill="#FFFFFF" fill-rule="nonzero">
            <g id="Plus-Copy" transform="translate(750.500000, 635.000000) rotate(45.000000) translate(-750.500000, -635.000000) translate(744.000000, 629.000000)">
                <g id="Plus">
                    <path d="M13,6 C13,6.553 12.948,7 12.3489167,7 L7.58333333,7 L7.58333333,11.399 C7.58333333,11.951 7.09908333,12 6.5,12 C5.90091667,12 5.41666667,11.951 5.41666667,11.399 L5.41666667,7 L0.651083333,7 C0.0530833333,7 0,6.553 0,6 C0,5.447 0.0530833333,5 0.651083333,5 L5.41666667,5 L5.41666667,0.601 C5.41666667,0.048 5.90091667,0 6.5,0 C7.09908333,0 7.58333333,0.048 7.58333333,0.601 L7.58333333,5 L12.3489167,5 C12.948,5 13,5.447 13,6 Z" id="Shape"></path>
                </g>
            </g>
        </g>
    </g>
</svg>